<svg width="305" height="64" viewBox="0 0 305 64" fill="none" xmlns="http://www.w3.org/2000/svg">
<path d="M4.6726 9.75914C4.36656 9.75914 4.23054 9.62312 4.23054 9.31709V4.18249C4.23054 3.87646 4.36656 3.74044 4.6726 3.74044H36.6364C37.7585 3.74044 38.6766 4.55653 38.6766 5.61065V7.92292C38.6766 8.90904 37.7585 9.75914 36.6364 9.75914H4.6726ZM4.23054 13.8736C4.23054 13.6016 4.36656 13.4656 4.6726 13.4656H36.2283C38.1325 13.4656 39.6967 14.8937 39.6967 16.662V18.6342C39.6967 20.4024 38.1325 21.8306 36.2283 21.8306H4.6726C4.36656 21.8306 4.23054 21.6945 4.23054 21.3885V13.8736ZM36.2283 25.537C40.1728 25.537 43.4031 22.4426 43.4031 18.6342V16.662C43.4031 14.7577 42.6211 13.0235 41.2949 11.7654C41.1249 11.5954 41.0909 11.4253 41.2609 11.2213C42.009 10.2692 42.383 9.18107 42.383 7.92292V5.61065C42.383 2.55029 39.7647 0.0680091 36.6364 0.0680091H3.0064L0.966161 0.0340035C0.660125 0.0340035 0.524109 0.17002 0.524109 0.476056V25.095C0.558113 25.197 0.626121 25.265 0.660125 25.333C0.762137 25.469 0.864149 25.537 0.966161 25.537H36.2283Z" fill="#F8F8F8"/>
<path d="M56.5731 3.67243C58.6134 3.67243 60.2796 5.2026 60.2796 7.10683V18.4302C60.2796 20.3344 58.6134 21.8646 56.5731 21.8646H53.3428C51.3025 21.8646 49.6363 20.3344 49.6363 18.4302V7.10683C49.6363 5.2026 51.3025 3.67243 53.3428 3.67243H56.5731ZM56.5731 25.537C60.6536 25.537 63.952 22.3406 63.952 18.4302V7.10683C63.952 3.19637 60.6536 0 56.5731 0H53.3428C49.2623 0 45.9639 3.19637 45.9639 7.10683V18.4302C45.9639 22.3406 49.2623 25.537 53.3428 25.537H56.5731Z" fill="#F8F8F8"/>
<path d="M77.1334 25.503C81.2139 25.503 84.5123 22.3406 84.5123 18.4302V0.442052C84.5123 0.204024 84.3763 0.0680091 84.1383 0.0680091H81.2139C80.9759 0.0680091 80.8399 0.204024 80.8399 0.442052V18.4302C80.8399 20.3004 79.1737 21.8306 77.1334 21.8306H73.9031C71.8628 21.8306 70.1966 20.3004 70.1966 18.4302V0.442052C70.1966 0.204024 70.0606 0.0680091 69.8226 0.0680091H66.8982C66.6602 0.0680091 66.5242 0.204024 66.5242 0.442052V18.4302C66.5242 22.3406 69.8226 25.503 73.9031 25.503H77.1334Z" fill="#F8F8F8"/>
<path d="M90.3284 25.537C90.5664 25.537 90.6684 25.435 90.6684 25.197V9.58912C90.6684 9.21507 91.0765 9.11306 91.3145 9.3851C92.7767 11.5954 94.1708 13.6356 94.2048 13.6696L94.2729 13.7376C94.6129 14.2817 95.837 15.9819 97.0612 17.8181C98.4213 19.8243 99.9175 22.1706 100.938 23.4628C101.108 23.7008 101.244 24.5169 101.346 25.197C101.346 25.435 101.448 25.537 101.686 25.537L104.712 25.503C104.95 25.503 105.052 25.401 105.052 25.163V0.408049C105.052 0.17002 104.95 0.0680091 104.712 0.0680091H101.686C101.448 0.0680091 101.346 0.17002 101.346 0.408049V16.4579C101.346 16.832 100.904 16.934 100.734 16.6279C100.496 16.3559 100.326 16.0499 100.122 15.7438L97.2312 11.5614C96.8232 10.9493 92.6407 4.79456 90.9065 2.38028C90.7364 2.10825 90.6684 1.05412 90.6684 0.408049C90.6684 0.17002 90.5664 0.0680091 90.3284 0.0680091H87.336C87.098 0.0680091 86.996 0.17002 86.996 0.408049V25.197C86.996 25.435 87.098 25.537 87.336 25.537H90.3284Z" fill="#F8F8F8"/>
<path d="M125.372 0.374045C125.372 0.136016 125.27 0.0340035 125.032 0.0340035H107.724C107.486 0.0340035 107.384 0.136016 107.384 0.374045V3.4344C107.384 3.67243 107.486 3.77444 107.724 3.77444H114.185C114.423 3.77444 114.525 3.87646 114.525 4.11448V25.197C114.525 25.435 114.627 25.537 114.865 25.537H117.926C118.164 25.537 118.266 25.435 118.266 25.197V4.11448C118.266 3.87646 118.368 3.77444 118.572 3.77444H125.032C125.27 3.77444 125.372 3.67243 125.372 3.4344V0.374045Z" fill="#F8F8F8"/>
<path d="M141.736 0.0340035C141.497 0.0340035 141.361 0.136016 141.361 0.374045C141.259 1.15614 141.157 2.17626 141.055 2.34628C140.239 3.60442 138.879 5.81467 137.689 7.7529L136.975 8.90904C136.805 9.18107 136.465 9.18107 136.329 8.90904L135.615 7.7529C134.425 5.81467 133.031 3.60442 132.214 2.34628C132.044 2.07424 132.01 1.05412 132.01 0.408049C132.01 0.17002 131.874 0.0340035 131.636 0.0340035H128.712C128.474 0.0340035 128.338 0.17002 128.338 0.442052C128.338 1.59819 128.474 3.33239 129.154 4.35251C129.97 5.54265 131.262 7.7529 132.452 9.69113C133.405 11.2893 134.221 12.5815 134.731 13.3636C134.765 13.4656 134.799 13.5336 134.799 13.5676V25.129C134.799 25.367 134.935 25.503 135.173 25.503H138.097C138.335 25.503 138.471 25.367 138.471 25.129V13.5676C138.471 13.5336 138.505 13.4656 138.539 13.3636C139.049 12.5815 139.831 11.2553 140.817 9.69113L144.15 4.35251C144.694 3.46841 144.932 1.56418 144.932 0.408049C144.966 0.17002 144.864 0.0340035 144.558 0.0340035H141.736Z" fill="#F8F8F8"/>
<path d="M174.204 0.51006C174.204 0.272033 174.102 0.17002 173.864 0.17002H170.838C170.634 0.17002 170.532 0.272033 170.532 0.51006V12.2754C170.532 12.5135 170.43 12.6155 170.192 12.6155H160.874C160.67 12.6155 160.568 12.5135 160.568 12.2754V0.374045C160.568 0.136016 160.466 0.0340035 160.262 0.0340035H157.236C156.998 0.0340035 156.896 0.136016 156.896 0.374045V25.231C156.896 25.435 156.998 25.537 157.236 25.537H160.262C160.466 25.537 160.568 25.435 160.568 25.231V16.5939C160.568 16.3559 160.67 16.2539 160.874 16.2539H170.192C170.43 16.2539 170.532 16.3559 170.532 16.5939V25.231C170.532 25.435 170.634 25.537 170.838 25.537H173.864C174.102 25.537 174.204 25.435 174.204 25.231V0.51006Z" fill="#F8F8F8"/>
<path d="M188.127 25.503C192.207 25.503 195.506 22.3406 195.506 18.4302V0.442052C195.506 0.204024 195.37 0.0680091 195.132 0.0680091H192.207C191.969 0.0680091 191.833 0.204024 191.833 0.442052V18.4302C191.833 20.3004 190.167 21.8306 188.127 21.8306H184.896C182.856 21.8306 181.19 20.3004 181.19 18.4302V0.442052C181.19 0.204024 181.054 0.0680091 180.816 0.0680091H177.892C177.654 0.0680091 177.518 0.204024 177.518 0.442052V18.4302C177.518 22.3406 180.816 25.503 184.896 25.503H188.127Z" fill="#F8F8F8"/>
<path d="M201.645 25.537C201.883 25.537 201.985 25.435 201.985 25.197V9.58912C201.985 9.21507 202.393 9.11306 202.631 9.3851C204.093 11.5954 205.487 13.6356 205.521 13.6696L205.589 13.7376C205.929 14.2817 207.154 15.9819 208.378 17.8181C209.738 19.8243 211.234 22.1706 212.254 23.4628C212.424 23.7008 212.56 24.5169 212.662 25.197C212.662 25.435 212.764 25.537 213.002 25.537L216.029 25.503C216.267 25.503 216.369 25.401 216.369 25.163V0.408049C216.369 0.17002 216.267 0.0680091 216.029 0.0680091H213.002C212.764 0.0680091 212.662 0.17002 212.662 0.408049V16.4579C212.662 16.832 212.22 16.934 212.05 16.6279C211.812 16.3559 211.642 16.0499 211.438 15.7438L208.548 11.5614C208.14 10.9493 203.957 4.79456 202.223 2.38028C202.053 2.10825 201.985 1.05412 201.985 0.408049C201.985 0.17002 201.883 0.0680091 201.645 0.0680091H198.653C198.415 0.0680091 198.313 0.17002 198.313 0.408049V25.197C198.313 25.435 198.415 25.537 198.653 25.537H201.645Z" fill="#F8F8F8"/>
<path d="M237.053 0.374045C237.053 0.136016 236.951 0.0340035 236.713 0.0340035H219.405C219.167 0.0340035 219.065 0.136016 219.065 0.374045V3.4344C219.065 3.67243 219.167 3.77444 219.405 3.77444H225.866C226.104 3.77444 226.206 3.87646 226.206 4.11448V25.197C226.206 25.435 226.308 25.537 226.546 25.537H229.606C229.844 25.537 229.946 25.435 229.946 25.197V4.11448C229.946 3.87646 230.048 3.77444 230.252 3.77444H236.713C236.951 3.77444 237.053 3.67243 237.053 3.4344V0.374045Z" fill="#F8F8F8"/>
<path d="M242.888 4.2505C242.888 3.94446 243.024 3.80845 243.33 3.80845H283.421C283.727 3.80845 283.863 3.67243 283.863 3.4004V0.612072C283.863 0.306036 283.727 0.17002 283.421 0.17002H239.691C239.385 0.17002 239.249 0.306036 239.249 0.612072V25.095C239.249 25.401 239.385 25.537 239.691 25.537H283.421C283.727 25.537 283.863 25.401 283.863 25.095V22.3066C283.863 22.0346 283.727 21.8986 283.421 21.8986H243.33C243.024 21.8986 242.888 21.7625 242.888 21.4565V16.662C242.888 16.3559 243.024 16.2199 243.33 16.2199H279.646C279.918 16.2199 280.054 16.0839 280.054 15.7778V12.9895C280.054 12.7175 279.918 12.5815 279.646 12.5815H243.33C243.024 12.5815 242.888 12.4455 242.888 12.1394V4.2505Z" fill="#F8F8F8"/>
<path d="M303.424 18.3622L300.703 15.3698C300.567 15.2338 300.567 14.9618 300.805 14.8597C302.947 13.6696 304.376 11.4933 304.376 8.90904V6.93681C304.376 3.16236 301.179 0.0680091 297.235 0.0680091H287.714C287.476 0.0680091 287.374 0.17002 287.374 0.408049V25.197C287.374 25.435 287.476 25.537 287.714 25.537H290.706C290.944 25.537 291.046 25.435 291.046 25.197V16.1179C291.046 15.8799 291.148 15.7778 291.386 15.7778H295.977C296.045 15.7778 296.113 15.8118 296.215 15.9139L300.635 20.7764L300.669 20.8104C300.907 21.2185 301.247 21.9326 301.247 22.5787L301.213 25.197C301.213 25.435 301.315 25.537 301.553 25.537H304.58C304.818 25.537 304.92 25.435 304.92 25.197V22.6127C304.92 20.6064 303.832 18.9062 303.662 18.6342L303.424 18.3622ZM291.046 4.08048C291.046 3.84245 291.148 3.74044 291.386 3.74044H297.235C299.139 3.74044 300.669 5.1686 300.669 6.93681V8.90904C300.669 10.6772 299.139 12.1054 297.235 12.1054H291.386C291.148 12.1054 291.046 12.0034 291.046 11.7654V4.08048Z" fill="#F8F8F8"/>
<path d="M45.6334 63.071C49.7139 63.071 53.0123 59.8746 53.0123 55.9642C53.0123 54.774 52.5362 51.8837 50.7 50.9656L50.564 50.8976L4.45456 46.5111C4.28454 46.4771 4.14851 46.375 4.08051 46.239C3.84248 45.797 3.67245 45.0829 3.67245 44.6408C3.67245 42.7706 5.33864 41.2404 7.37888 41.2404H45.6334C47.6736 41.2404 49.3398 42.7706 49.3398 44.6408V45.899C49.3398 46.205 49.5098 46.375 49.8159 46.375H52.5702C52.8762 46.375 53.0123 46.205 53.0123 45.899V44.6408C53.0123 40.7304 49.7139 37.534 45.6334 37.534H7.37888C3.2984 37.534 3.05176e-05 40.7304 3.05176e-05 44.6408C3.05176e-05 45.797 0.646114 48.5513 2.34631 49.6734L2.4483 49.7414L48.5917 54.1619C48.7618 54.1619 48.8638 54.23 48.9658 54.4C49.1358 54.842 49.3398 55.5561 49.3398 55.9642C49.3398 57.8684 47.6736 59.3986 45.6334 59.3986H7.37888C5.33864 59.3986 3.67245 57.8684 3.67245 55.9642V54.638C3.67245 54.332 3.53644 54.196 3.23041 54.196H0.442078C0.136042 54.196 3.05176e-05 54.332 3.05176e-05 54.638V55.9642C3.05176e-05 59.8746 3.2984 63.071 7.37888 63.071H45.6334Z" fill="#F8F8F8"/>
<path d="M56.4719 37.568H55.9278C55.7238 37.568 55.6218 37.67 55.6218 37.9081V62.731C55.6218 62.969 55.7238 63.071 55.9278 63.071H58.9202C59.1582 63.071 59.2602 62.969 59.2602 62.731V54.298C59.2602 54.0599 59.3962 53.9239 59.6342 53.9239H65.823C69.7675 53.9239 72.9638 50.8636 72.9638 47.0891V44.3688C72.9638 40.5944 69.7675 37.466 65.823 37.5L56.4719 37.568ZM69.2574 47.0891C69.2574 48.8233 67.7272 50.2515 65.823 50.2515H59.6342C59.3962 50.2515 59.2602 50.1495 59.2602 49.9115V41.5465C59.2602 41.3084 59.3962 41.2064 59.6342 41.2064H65.823C67.7272 41.2064 69.2574 42.6346 69.2574 44.3688V47.0891Z" fill="#F8F8F8"/>
<path d="M88.3909 49.0614C86.4867 44.6068 84.4464 39.9823 83.8683 38.6561L83.4603 37.738C83.4263 37.636 83.3243 37.568 83.1882 37.568H80.91C80.774 37.568 80.672 37.636 80.604 37.738L80.1959 38.6561C79.6178 39.9823 77.6116 44.6068 75.7074 49.0614C74.3812 52.1557 73.0891 55.1821 72.205 57.1203C71.4909 58.7185 71.3889 60.6907 71.3889 62.731C71.3889 62.935 71.4909 63.037 71.6949 63.037L74.7552 63.071L74.8913 62.969C74.9933 62.867 75.0613 62.867 75.0613 62.765C75.0613 61.7109 75.1633 59.6706 75.6053 58.6165C75.7754 58.2424 75.9114 57.8344 76.1494 57.3923C76.1834 57.2563 76.2855 57.1883 76.4555 57.1883H87.6428C87.7788 57.1883 87.8808 57.2563 87.9148 57.3923C88.1529 57.8344 88.2889 58.2424 88.4589 58.6165C88.969 59.7046 89.0029 61.1328 89.0029 62.765C89.0029 62.969 89.105 63.071 89.343 63.071H92.3693C92.6074 63.071 92.7094 62.969 92.7094 62.765C92.7094 60.7247 92.6073 58.8545 91.8593 57.1203L88.3909 49.0614ZM78.3257 53.4819C78.0877 53.4819 77.9176 53.2778 78.0197 53.0398C78.3937 52.2237 78.7337 51.4076 79.1078 50.4895L81.7261 44.3688C81.8621 44.0968 82.2362 44.0968 82.3382 44.3688C83.1203 46.171 84.0723 48.3473 84.9905 50.5235C85.3645 51.3736 85.6705 52.2237 86.0446 53.0398C86.1466 53.2778 86.0106 53.4819 85.7726 53.4819H78.3257Z" fill="#F8F8F8"/>
<path d="M104.645 63.037C108.726 63.037 112.024 59.8746 112.024 55.9642V54.706C112.024 54.502 111.922 54.4 111.718 54.4H108.624C108.454 54.4 108.352 54.502 108.352 54.706V55.9642C108.352 57.8344 106.686 59.3646 104.645 59.3646H101.415C99.3747 59.3646 97.7085 57.8344 97.7085 55.9642V44.6408C97.7085 42.7366 99.3747 41.2064 101.415 41.2064H104.645C106.686 41.2064 108.352 42.7366 108.352 44.6408V46.069C108.352 46.239 108.454 46.341 108.624 46.341H111.718C111.922 46.341 112.024 46.239 112.024 46.069V44.6408C112.024 40.7304 108.726 37.534 104.645 37.534H101.415C97.3344 37.534 94.036 40.7304 94.036 44.6408V55.9642C94.036 59.8746 97.3344 63.037 101.415 63.037H104.645Z" fill="#F8F8F8"/>
<path d="M117.433 41.6145C117.433 41.3765 117.569 41.2404 117.807 41.2404H138.002C138.24 41.2404 138.376 41.1384 138.376 40.9004V37.9421C138.376 37.704 138.24 37.602 138.002 37.602H114.134C113.896 37.602 113.794 37.704 113.794 37.9421V62.697C113.794 62.935 113.896 63.071 114.134 63.071H138.002C138.24 63.071 138.376 62.935 138.376 62.697V59.7386C138.376 59.5006 138.24 59.3986 138.002 59.3986H117.807C117.569 59.3986 117.433 59.2626 117.433 59.0245V54.0599C117.433 53.8219 117.569 53.7199 117.807 53.7199H134.194C134.432 53.7199 134.568 53.5839 134.568 53.3459V50.3875C134.568 50.1495 134.432 50.0475 134.194 50.0475H117.807C117.569 50.0475 117.433 49.9115 117.433 49.6734V41.6145Z" fill="#F8F8F8"/>
<path d="M227.517 46.409C227.824 46.409 227.96 46.273 227.96 45.967V44.6748C227.96 40.7984 224.661 37.602 220.615 37.602H163.565C159.519 37.602 156.221 40.7984 156.221 44.6748V55.9982C156.221 59.9086 159.519 63.071 163.565 63.071H220.615C224.661 63.071 227.96 59.9086 227.96 55.9982V50.6255C227.96 50.3195 227.824 50.1835 227.517 50.1835H205.449C205.143 50.1835 205.007 50.3195 205.007 50.6255V53.3799C205.007 53.6859 205.143 53.8559 205.449 53.8559H223.845C224.151 53.8559 224.287 53.9919 224.287 54.298V55.9982C224.287 57.8684 222.621 59.3986 220.615 59.3986H163.565C161.525 59.3986 159.893 57.8684 159.893 55.9982V44.6748C159.893 42.8046 161.525 41.2744 163.565 41.2744H220.615C222.621 41.2744 224.287 42.8046 224.287 44.6748V45.967C224.287 46.273 224.423 46.409 224.729 46.409H227.517Z" fill="#F8F8F8"/>
<path d="M242.009 63.037C246.09 63.037 249.388 59.8746 249.388 55.9642V37.9761C249.388 37.738 249.252 37.602 249.014 37.602H246.09C245.851 37.602 245.715 37.738 245.715 37.9761V55.9642C245.715 57.8344 244.049 59.3646 242.009 59.3646H238.779C236.738 59.3646 235.072 57.8344 235.072 55.9642V37.9761C235.072 37.738 234.936 37.602 234.698 37.602H231.774C231.536 37.602 231.4 37.738 231.4 37.9761V55.9642C231.4 59.8746 234.698 63.037 238.779 63.037H242.009Z" fill="#F8F8F8"/>
<path d="M260.228 41.5805C260.228 41.3425 260.33 41.2404 260.568 41.2404H264.887C265.125 41.2404 265.227 41.1384 265.227 40.9004V37.9081C265.227 37.67 265.125 37.534 264.887 37.534H251.863C251.625 37.534 251.523 37.67 251.523 37.9081V40.9004C251.523 41.1384 251.625 41.2404 251.863 41.2404H256.182C256.42 41.2404 256.522 41.3425 256.522 41.5805V59.0245C256.522 59.2626 256.42 59.3646 256.182 59.3646H251.863C251.625 59.3646 251.523 59.5006 251.523 59.7386V62.731C251.523 62.969 251.625 63.071 251.863 63.071H264.887C265.125 63.071 265.227 62.969 265.227 62.731V59.7386C265.227 59.5006 265.125 59.3646 264.887 59.3646H260.568C260.33 59.3646 260.228 59.2626 260.228 59.0245V41.5805Z" fill="#F8F8F8"/>
<path d="M283.715 63.071C283.953 63.071 284.055 62.969 284.055 62.731V59.7386C284.055 59.5006 283.953 59.3986 283.715 59.3986H271.576C271.337 59.3986 271.235 59.2966 271.235 59.0585V37.9421C271.235 37.704 271.133 37.602 270.895 37.602H267.903C267.665 37.602 267.563 37.704 267.563 37.9421V62.731C267.563 62.969 267.665 63.071 267.903 63.071H283.715Z" fill="#F8F8F8"/>
<path d="M290.536 41.6145C290.536 41.3765 290.638 41.2404 290.876 41.2404H297.337C299.139 41.2404 300.703 42.6006 300.703 44.3688V56.2702C300.703 58.0384 299.139 59.3986 297.337 59.3986H290.876C290.638 59.3986 290.536 59.2966 290.536 59.0585V41.6145ZM297.337 63.071C301.213 63.071 304.376 60.0787 304.376 56.2702V44.3688C304.376 40.6624 301.213 37.568 297.337 37.568H287.204C286.966 37.568 286.864 37.704 286.864 37.9421V62.731C286.864 62.969 286.966 63.071 287.204 63.071H297.337Z" fill="#F8F8F8"/>
</svg>
