<svg width="102" height="102" viewBox="0 0 102 102" fill="none" xmlns="http://www.w3.org/2000/svg">
<path fill-rule="evenodd" clip-rule="evenodd" d="M101.851 50.9253L50.9253 0L0 50.9253L50.9253 101.851L101.851 50.9253ZM88.4252 43.4408L50.9252 5.94082L13.4253 43.4408L36.8628 30.9879L41.5502 47.8748H46.2377L46.2377 30.9879L48.5815 47.8748H53.269L55.6127 30.9879V47.8748H60.3002L64.9877 30.9879L88.4252 43.4408ZM13.4253 58.4103L50.9252 95.9102L88.4252 58.4103L64.9877 70.8632L60.3002 53.9762H55.6127L55.6127 70.8632L53.269 53.9762H48.5815L46.2377 70.8632V53.9762L41.5502 53.9762L36.8628 70.8632L13.4253 58.4103Z" fill="#F8F8F8"/>
</svg>
